<?xml version="1.0" encoding="utf-8"?>
<!-- Generator: Adobe Illustrator 14.0.0, SVG Export Plug-In . SVG Version: 6.00 Build 43363)  -->
<!DOCTYPE svg PUBLIC "-//W3C//DTD SVG 1.1//EN" "http://www.w3.org/Graphics/SVG/1.1/DTD/svg11.dtd">
<svg version="1.1" id="Icon" xmlns="http://www.w3.org/2000/svg" xmlns:xlink="http://www.w3.org/1999/xlink" x="0px" y="0px"
	 width="60px" height="60px" viewBox="0 0 60 60" enable-background="new 0 0 60 60" xml:space="preserve">
<path id="Account" opacity="0.3" d="M26.82,54.479v-5.699C22.8,48.6,18.9,47.46,16.621,46.2l1.8-7.021
	c2.521,1.379,6.06,2.641,9.96,2.641c3.479,0,5.818-1.381,5.818-3.721c0-2.279-1.92-3.721-6.419-5.221
	c-6.419-2.158-10.8-5.159-10.8-10.979c0-5.34,3.721-9.479,10.141-10.68v-5.7H33v5.28c3.959,0.12,6.66,1.02,8.76,1.98l-1.801,6.78
	c-1.5-0.72-4.318-2.1-8.639-2.1c-3.899,0-5.159,1.74-5.159,3.42c0,1.92,2.1,3.24,7.259,5.1c7.141,2.52,9.959,5.82,9.959,11.28
	c0,5.34-3.719,9.898-10.619,11.039v6.18H26.82z"/>
</svg>
